<svg xmlns="http://www.w3.org/2000/svg" viewBox="0 0 900 686" font-family="-apple-system,BlinkMacSystemFont,Segoe UI,Helvetica,Arial,sans-serif">
<rect width="900" height="686" fill="none"/>
<text x="20" y="26" fill="#e8e8e8" font-size="15" font-weight="600">Total power vs the reference, at each task’s pinned clock</text>
<text x="20" y="45" fill="#9a9a9a" font-size="12">Lower is smaller. Only submissions that CLOSED TIMING are plotted — see the notes for the rest.</text>
<line x1="473.88888888888886" y1="58" x2="473.88888888888886" y2="666" stroke="#ff6b6b" stroke-width="1.5" stroke-dasharray="4 3"/>
<text x="478.88888888888886" y="68" fill="#ff6b6b" font-size="11">reference (1.0×)</text>
<text x="20" y="88" fill="#e8e8e8" font-size="13" font-weight="600">async CDC FIFO</text>
<text x="20" y="104" fill="#9a9a9a" font-size="11">d_ca04 @ 4.25 ns</text>
<text x="200" y="89" fill="#9a9a9a" font-size="11" text-anchor="end">chat</text>
<rect x="210" y="78" width="480" height="15" rx="2" fill="#333" opacity="0.45"/>
<rect x="210" y="78" width="160" height="15" rx="2" fill="#5b8dfb"/>
<text x="376" y="89" fill="#e8e8e8" font-size="11">0.61×</text>
<text x="200" y="109" fill="#9a9a9a" font-size="11" text-anchor="end">claude</text>
<rect x="210" y="98" width="480" height="15" rx="2" fill="#333" opacity="0.45"/>
<rect x="210" y="98" width="157" height="15" rx="2" fill="#5b8dfb"/>
<text x="373" y="109" fill="#e8e8e8" font-size="11">0.60×</text>
<text x="200" y="129" fill="#9a9a9a" font-size="11" text-anchor="end">gemini</text>
<rect x="210" y="118" width="480" height="15" rx="2" fill="#333" opacity="0.45"/>
<rect x="210" y="118" width="163" height="15" rx="2" fill="#5b8dfb"/>
<text x="379" y="129" fill="#e8e8e8" font-size="11">0.62×</text>
<text x="20" y="174" fill="#e8e8e8" font-size="13" font-weight="600">stream switch</text>
<text x="20" y="190" fill="#9a9a9a" font-size="11">d_nw03 @ 4.25 ns</text>
<text x="200" y="175" fill="#9a9a9a" font-size="11" text-anchor="end">chat</text>
<rect x="210" y="164" width="480" height="15" rx="2" fill="#333" opacity="0.45"/>
<text x="216" y="175" fill="#9a9a9a" font-size="11" font-style="italic">missed timing</text>
<text x="200" y="195" fill="#9a9a9a" font-size="11" text-anchor="end">claude</text>
<rect x="210" y="184" width="480" height="15" rx="2" fill="#333" opacity="0.45"/>
<text x="216" y="195" fill="#9a9a9a" font-size="11" font-style="italic">missed timing</text>
<text x="200" y="215" fill="#9a9a9a" font-size="11" text-anchor="end">gemini</text>
<rect x="210" y="204" width="480" height="15" rx="2" fill="#333" opacity="0.45"/>
<text x="216" y="215" fill="#9a9a9a" font-size="11" font-style="italic">missed timing</text>
<text x="20" y="260" fill="#e8e8e8" font-size="13" font-weight="600">FP32 FMA</text>
<text x="20" y="276" fill="#9a9a9a" font-size="11">d_dsp02 @ 19.25 ns</text>
<text x="200" y="261" fill="#9a9a9a" font-size="11" text-anchor="end">chat</text>
<rect x="210" y="250" width="480" height="15" rx="2" fill="#333" opacity="0.45"/>
<rect x="210" y="250" width="78" height="15" rx="2" fill="#5b8dfb"/>
<text x="294" y="261" fill="#e8e8e8" font-size="11">0.30×</text>
<text x="200" y="281" fill="#9a9a9a" font-size="11" text-anchor="end">claude</text>
<rect x="210" y="270" width="480" height="15" rx="2" fill="#333" opacity="0.45"/>
<rect x="210" y="270" width="233" height="15" rx="2" fill="#5b8dfb"/>
<text x="449" y="281" fill="#e8e8e8" font-size="11">0.89×</text>
<text x="200" y="301" fill="#9a9a9a" font-size="11" text-anchor="end">gemini</text>
<rect x="210" y="290" width="480" height="15" rx="2" fill="#333" opacity="0.45"/>
<text x="216" y="301" fill="#9a9a9a" font-size="11" font-style="italic">fails correctness</text>
<text x="20" y="346" fill="#e8e8e8" font-size="13" font-weight="600">multi-format FMA</text>
<text x="20" y="362" fill="#9a9a9a" font-size="11">d_dsp03 @ 70.5 ns</text>
<text x="200" y="347" fill="#9a9a9a" font-size="11" text-anchor="end">chat</text>
<rect x="210" y="336" width="480" height="15" rx="2" fill="#333" opacity="0.45"/>
<text x="216" y="347" fill="#9a9a9a" font-size="11" font-style="italic">fails correctness</text>
<text x="200" y="367" fill="#9a9a9a" font-size="11" text-anchor="end">claude</text>
<rect x="210" y="356" width="480" height="15" rx="2" fill="#333" opacity="0.45"/>
<rect x="210" y="356" width="232" height="15" rx="2" fill="#5b8dfb"/>
<text x="448" y="367" fill="#e8e8e8" font-size="11">0.88×</text>
<text x="200" y="387" fill="#9a9a9a" font-size="11" text-anchor="end">gemini</text>
<rect x="210" y="376" width="480" height="15" rx="2" fill="#333" opacity="0.45"/>
<text x="216" y="387" fill="#9a9a9a" font-size="11" font-style="italic">fails correctness</text>
<text x="20" y="432" fill="#e8e8e8" font-size="13" font-weight="600">AXI4 crossbar</text>
<text x="20" y="448" fill="#9a9a9a" font-size="11">d_nw01 @ 8.0 ns</text>
<text x="200" y="433" fill="#9a9a9a" font-size="11" text-anchor="end">chat</text>
<rect x="210" y="422" width="480" height="15" rx="2" fill="#333" opacity="0.45"/>
<rect x="210" y="422" width="280" height="15" rx="2" fill="#2f4f8f"/>
<text x="496" y="433" fill="#e8e8e8" font-size="11">1.06×</text>
<text x="200" y="453" fill="#9a9a9a" font-size="11" text-anchor="end">claude</text>
<rect x="210" y="442" width="480" height="15" rx="2" fill="#333" opacity="0.45"/>
<text x="216" y="453" fill="#9a9a9a" font-size="11" font-style="italic">missed timing</text>
<text x="200" y="473" fill="#9a9a9a" font-size="11" text-anchor="end">gemini</text>
<rect x="210" y="462" width="480" height="15" rx="2" fill="#333" opacity="0.45"/>
<text x="216" y="473" fill="#9a9a9a" font-size="11" font-style="italic">fails correctness</text>
<text x="20" y="518" fill="#e8e8e8" font-size="13" font-weight="600">non-blocking D-cache</text>
<text x="20" y="534" fill="#9a9a9a" font-size="11">d_ca01 @ 15.0 ns</text>
<text x="200" y="519" fill="#9a9a9a" font-size="11" text-anchor="end">chat</text>
<rect x="210" y="508" width="480" height="15" rx="2" fill="#333" opacity="0.45"/>
<rect x="210" y="508" width="444" height="15" rx="2" fill="#2f4f8f"/>
<text x="660" y="519" fill="#e8e8e8" font-size="11">1.68×</text>
<text x="200" y="539" fill="#9a9a9a" font-size="11" text-anchor="end">claude</text>
<rect x="210" y="528" width="480" height="15" rx="2" fill="#333" opacity="0.45"/>
<rect x="210" y="528" width="328" height="15" rx="2" fill="#2f4f8f"/>
<text x="544" y="539" fill="#e8e8e8" font-size="11">1.24×</text>
<text x="200" y="559" fill="#9a9a9a" font-size="11" text-anchor="end">gemini</text>
<rect x="210" y="548" width="480" height="15" rx="2" fill="#333" opacity="0.45"/>
<text x="216" y="559" fill="#9a9a9a" font-size="11" font-style="italic">did not build</text>
<text x="20" y="604" fill="#e8e8e8" font-size="13" font-weight="600">Sv39 MMU</text>
<text x="20" y="620" fill="#9a9a9a" font-size="11">d_ca03 @ 12.5 ns</text>
<text x="200" y="605" fill="#9a9a9a" font-size="11" text-anchor="end">chat</text>
<rect x="210" y="594" width="480" height="15" rx="2" fill="#333" opacity="0.45"/>
<text x="216" y="605" fill="#9a9a9a" font-size="11" font-style="italic">missed timing</text>
<text x="200" y="625" fill="#9a9a9a" font-size="11" text-anchor="end">claude</text>
<rect x="210" y="614" width="480" height="15" rx="2" fill="#333" opacity="0.45"/>
<text x="216" y="625" fill="#9a9a9a" font-size="11" font-style="italic">fails correctness</text>
<text x="200" y="645" fill="#9a9a9a" font-size="11" text-anchor="end">gemini</text>
<rect x="210" y="634" width="480" height="15" rx="2" fill="#333" opacity="0.45"/>
<text x="216" y="645" fill="#9a9a9a" font-size="11" font-style="italic">did not build</text>
</svg>
