<svg xmlns="http://www.w3.org/2000/svg" width="800" height="482" viewBox="0 0 800 482" font-family="-apple-system,BlinkMacSystemFont,'Segoe UI',Helvetica,Arial,sans-serif">
<rect width="800" height="482" fill="#fcfcfb"/>
<text x="24" y="30" font-size="15" font-weight="600" fill="#0b0b0b">Verification: seeded faults detected by each submission</text>
<text x="24" y="50" font-size="11.5" fill="#52514e">Each model wrote a testbench from a written specification, never seeing the RTL.</text>
<text x="24" y="66" font-size="11.5" fill="#52514e">A fault count is shown ONLY where the testbench first accepted correct hardware; otherwise it carries no information and is withheld.</text>
<text x="24" y="106" font-size="12" font-weight="600" fill="#0b0b0b">v_ca05</text>
<text x="190" y="129.0" font-size="11.5" text-anchor="end" fill="#52514e">ChatGPT 5.6 Sol</text>
<rect x="200" y="117" width="300" height="12" rx="4" fill="#e6e5e1"/>
<rect x="200" y="117" width="300.0" height="12" rx="4" fill="#2a78d6"/>
<text x="516" y="129.0" font-size="11.5" font-weight="600" fill="#0b0b0b">10 / 10</text>
<text x="190" y="151.0" font-size="11.5" text-anchor="end" fill="#52514e">Gemini 3.1 Pro</text>
<rect x="200" y="139" width="300" height="12" rx="4" fill="#e6e5e1"/>
<rect x="200" y="139" width="5" height="12" rx="2.5" fill="#c9c7c1"/>
<text x="516" y="151.0" font-size="11" fill="#83817a">not scoreable — rejects a legal variant</text>
<text x="190" y="173.0" font-size="11.5" text-anchor="end" fill="#52514e">Qwen 3.7 Plus</text>
<rect x="200" y="161" width="300" height="12" rx="4" fill="#e6e5e1"/>
<rect x="200" y="161" width="5" height="12" rx="2.5" fill="#c9c7c1"/>
<text x="516" y="173.0" font-size="11" fill="#83817a">not scoreable — rejects a legal variant</text>
<text x="190" y="195.0" font-size="11.5" text-anchor="end" fill="#52514e">DeepSeek V4 Pro</text>
<rect x="200" y="183" width="300" height="12" rx="4" fill="#e6e5e1"/>
<rect x="200" y="183" width="5" height="12" rx="2.5" fill="#c9c7c1"/>
<text x="516" y="195.0" font-size="11" fill="#83817a">not scoreable — rejects the golden DUT</text>
<line x1="500" y1="114" x2="500" y2="198" stroke="#83817a" stroke-width="1.5" stroke-dasharray="3 2"/>
<text x="504" y="111" font-size="9.5" fill="#83817a">ceiling 10/10</text>
<text x="24" y="224" font-size="12" font-weight="600" fill="#0b0b0b">v_nw03</text>
<text x="190" y="247.0" font-size="11.5" text-anchor="end" fill="#52514e">ChatGPT 5.6 Sol</text>
<rect x="200" y="235" width="300" height="12" rx="4" fill="#e6e5e1"/>
<rect x="200" y="235" width="270.0" height="12" rx="4" fill="#2a78d6"/>
<text x="516" y="247.0" font-size="11.5" font-weight="600" fill="#0b0b0b">9 / 10</text>
<text x="190" y="269.0" font-size="11.5" text-anchor="end" fill="#52514e">Gemini 3.1 Pro</text>
<rect x="200" y="257" width="300" height="12" rx="4" fill="#e6e5e1"/>
<rect x="200" y="257" width="270.0" height="12" rx="4" fill="#2a78d6"/>
<text x="516" y="269.0" font-size="11.5" font-weight="600" fill="#0b0b0b">9 / 10</text>
<text x="190" y="291.0" font-size="11.5" text-anchor="end" fill="#52514e">DeepSeek V4 Pro</text>
<rect x="200" y="279" width="300" height="12" rx="4" fill="#e6e5e1"/>
<rect x="200" y="279" width="180.0" height="12" rx="4" fill="#2a78d6"/>
<text x="516" y="291.0" font-size="11.5" font-weight="600" fill="#0b0b0b">6 / 10</text>
<text x="190" y="313.0" font-size="11.5" text-anchor="end" fill="#52514e">Qwen 3.7 Plus</text>
<rect x="200" y="301" width="300" height="12" rx="4" fill="#e6e5e1"/>
<rect x="200" y="301" width="5" height="12" rx="2.5" fill="#c9c7c1"/>
<text x="516" y="313.0" font-size="11" fill="#83817a">not scoreable — rejects the golden DUT</text>
<line x1="500" y1="232" x2="500" y2="316" stroke="#83817a" stroke-width="1.5" stroke-dasharray="3 2"/>
<text x="504" y="229" font-size="9.5" fill="#83817a">ceiling 10/10</text>
<text x="24" y="342" font-size="12" font-weight="600" fill="#0b0b0b">v_dsp02</text>
<text x="190" y="365.0" font-size="11.5" text-anchor="end" fill="#52514e">ChatGPT 5.6 Sol</text>
<rect x="200" y="353" width="300" height="12" rx="4" fill="#e6e5e1"/>
<rect x="200" y="353" width="270.0" height="12" rx="4" fill="#2a78d6"/>
<text x="516" y="365.0" font-size="11.5" font-weight="600" fill="#0b0b0b">9 / 10</text>
<text x="190" y="387.0" font-size="11.5" text-anchor="end" fill="#52514e">DeepSeek V4 Pro</text>
<rect x="200" y="375" width="300" height="12" rx="4" fill="#e6e5e1"/>
<rect x="200" y="375" width="240.0" height="12" rx="4" fill="#2a78d6"/>
<text x="516" y="387.0" font-size="11.5" font-weight="600" fill="#0b0b0b">8 / 10</text>
<text x="190" y="409.0" font-size="11.5" text-anchor="end" fill="#52514e">Gemini 3.1 Pro</text>
<rect x="200" y="397" width="300" height="12" rx="4" fill="#e6e5e1"/>
<rect x="200" y="397" width="5" height="12" rx="2.5" fill="#c9c7c1"/>
<text x="516" y="409.0" font-size="11" fill="#83817a">not scoreable — rejects the golden DUT</text>
<text x="190" y="431.0" font-size="11.5" text-anchor="end" fill="#52514e">Qwen 3.7 Plus</text>
<rect x="200" y="419" width="300" height="12" rx="4" fill="#e6e5e1"/>
<rect x="200" y="419" width="5" height="12" rx="2.5" fill="#c9c7c1"/>
<text x="516" y="431.0" font-size="11" fill="#83817a">not scoreable — did not compile</text>
<line x1="500" y1="350" x2="500" y2="434" stroke="#83817a" stroke-width="1.5" stroke-dasharray="3 2"/>
<text x="504" y="347" font-size="9.5" fill="#83817a">ceiling 10/10</text>
<line x1="200" y1="98" x2="200" y2="434" stroke="#e6e5e1" stroke-width="1"/>
<text x="24" y="466" font-size="11" fill="#83817a">Bar length = faults caught. The dashed line is the ceiling: what the task’s own reference testbench catches, proving every fault is catchable.</text>
</svg>