<svg xmlns="http://www.w3.org/2000/svg" viewBox="0 0 1512 300" font-family="-apple-system,BlinkMacSystemFont,Segoe UI,Helvetica,Arial,sans-serif">
<rect width="1512" height="300" fill="none"/>
<line x1="52" y1="210.0" x2="1492" y2="210.0" stroke="#3a3a3a" stroke-width="1"/>
<text x="44" y="214.0" fill="#9a9a9a" font-size="11" text-anchor="end">0</text>
<line x1="52" y1="180.0" x2="1492" y2="180.0" stroke="#3a3a3a" stroke-width="1"/>
<text x="44" y="184.0" fill="#9a9a9a" font-size="11" text-anchor="end">2</text>
<line x1="52" y1="150.0" x2="1492" y2="150.0" stroke="#3a3a3a" stroke-width="1"/>
<text x="44" y="154.0" fill="#9a9a9a" font-size="11" text-anchor="end">4</text>
<line x1="52" y1="120.0" x2="1492" y2="120.0" stroke="#3a3a3a" stroke-width="1"/>
<text x="44" y="124.0" fill="#9a9a9a" font-size="11" text-anchor="end">6</text>
<line x1="52" y1="90.0" x2="1492" y2="90.0" stroke="#3a3a3a" stroke-width="1"/>
<text x="44" y="94.0" fill="#9a9a9a" font-size="11" text-anchor="end">8</text>
<line x1="52" y1="60.0" x2="1492" y2="60.0" stroke="#3a3a3a" stroke-width="1"/>
<text x="44" y="64.0" fill="#9a9a9a" font-size="11" text-anchor="end">10</text>
<rect x="60" y="180" width="26" height="30" rx="2" fill="#5b8dfb"/>
<text x="73.0" y="174" fill="#e8e8e8" font-size="11" text-anchor="middle">2</text>
<text x="73.0" y="224" fill="#9a9a9a" font-size="9" text-anchor="middle" transform="rotate(-40 73.0 224)">ChatGPT</text>
<rect x="94" y="150" width="26" height="60" rx="2" fill="#5b8dfb"/>
<text x="107.0" y="144" fill="#e8e8e8" font-size="11" text-anchor="middle">4</text>
<text x="107.0" y="224" fill="#9a9a9a" font-size="9" text-anchor="middle" transform="rotate(-40 107.0 224)">Claude</text>
<rect x="128" y="180" width="26" height="30" rx="2" fill="#5b8dfb"/>
<text x="141.0" y="174" fill="#e8e8e8" font-size="11" text-anchor="middle">2</text>
<text x="141.0" y="224" fill="#9a9a9a" font-size="9" text-anchor="middle" transform="rotate(-40 141.0 224)">Gemini</text>
<line x1="56" y1="60.0" x2="158" y2="60.0" stroke="#ff6b6b" stroke-width="2" stroke-dasharray="5,3"/>
<text x="107.0" y="272" fill="#e8e8e8" font-size="12" font-weight="600" text-anchor="middle">v_ai02</text>
<rect x="208" y="204" width="26" height="6" rx="2" fill="#333"/>
<text x="221.0" y="198" fill="#9a9a9a" font-size="9" text-anchor="middle" transform="rotate(-90 221.0 198)">invalid</text>
<text x="221.0" y="224" fill="#9a9a9a" font-size="9" text-anchor="middle" transform="rotate(-40 221.0 224)">ChatGPT</text>
<rect x="242" y="204" width="26" height="6" rx="2" fill="#333"/>
<text x="255.0" y="198" fill="#9a9a9a" font-size="9" text-anchor="middle" transform="rotate(-90 255.0 198)">invalid</text>
<text x="255.0" y="224" fill="#9a9a9a" font-size="9" text-anchor="middle" transform="rotate(-40 255.0 224)">Claude</text>
<rect x="276" y="150" width="26" height="60" rx="2" fill="#5b8dfb"/>
<text x="289.0" y="144" fill="#e8e8e8" font-size="11" text-anchor="middle">4</text>
<text x="289.0" y="224" fill="#9a9a9a" font-size="9" text-anchor="middle" transform="rotate(-40 289.0 224)">Gemini</text>
<line x1="204" y1="60.0" x2="306" y2="60.0" stroke="#ff6b6b" stroke-width="2" stroke-dasharray="5,3"/>
<text x="255.0" y="272" fill="#e8e8e8" font-size="12" font-weight="600" text-anchor="middle">v_ca03</text>
<rect x="356" y="204" width="26" height="6" rx="2" fill="#333"/>
<text x="369.0" y="198" fill="#9a9a9a" font-size="9" text-anchor="middle" transform="rotate(-90 369.0 198)">invalid</text>
<text x="369.0" y="224" fill="#9a9a9a" font-size="9" text-anchor="middle" transform="rotate(-40 369.0 224)">ChatGPT</text>
<rect x="390" y="120" width="26" height="90" rx="2" fill="#5b8dfb"/>
<text x="403.0" y="114" fill="#e8e8e8" font-size="11" text-anchor="middle">6</text>
<text x="403.0" y="224" fill="#9a9a9a" font-size="9" text-anchor="middle" transform="rotate(-40 403.0 224)">Claude</text>
<rect x="424" y="204" width="26" height="6" rx="2" fill="#333"/>
<text x="437.0" y="198" fill="#9a9a9a" font-size="9" text-anchor="middle" transform="rotate(-90 437.0 198)"></text>
<text x="437.0" y="224" fill="#9a9a9a" font-size="9" text-anchor="middle" transform="rotate(-40 437.0 224)">Gemini</text>
<line x1="352" y1="60.0" x2="454" y2="60.0" stroke="#ff6b6b" stroke-width="2" stroke-dasharray="5,3"/>
<text x="403.0" y="272" fill="#e8e8e8" font-size="12" font-weight="600" text-anchor="middle">v_ca04</text>
<rect x="504" y="120" width="26" height="90" rx="2" fill="#5b8dfb"/>
<text x="517.0" y="114" fill="#e8e8e8" font-size="11" text-anchor="middle">6</text>
<text x="517.0" y="224" fill="#9a9a9a" font-size="9" text-anchor="middle" transform="rotate(-40 517.0 224)">ChatGPT</text>
<rect x="538" y="204" width="26" height="6" rx="2" fill="#333"/>
<text x="551.0" y="198" fill="#9a9a9a" font-size="9" text-anchor="middle" transform="rotate(-90 551.0 198)">gate</text>
<text x="551.0" y="224" fill="#9a9a9a" font-size="9" text-anchor="middle" transform="rotate(-40 551.0 224)">Claude</text>
<rect x="572" y="204" width="26" height="6" rx="2" fill="#333"/>
<text x="585.0" y="198" fill="#9a9a9a" font-size="9" text-anchor="middle" transform="rotate(-90 585.0 198)">gate</text>
<text x="585.0" y="224" fill="#9a9a9a" font-size="9" text-anchor="middle" transform="rotate(-40 585.0 224)">Gemini</text>
<line x1="500" y1="60.0" x2="602" y2="60.0" stroke="#ff6b6b" stroke-width="2" stroke-dasharray="5,3"/>
<text x="551.0" y="272" fill="#e8e8e8" font-size="12" font-weight="600" text-anchor="middle">v_ca05</text>
<rect x="652" y="204" width="26" height="6" rx="2" fill="#333"/>
<text x="665.0" y="198" fill="#9a9a9a" font-size="9" text-anchor="middle" transform="rotate(-90 665.0 198)">invalid</text>
<text x="665.0" y="224" fill="#9a9a9a" font-size="9" text-anchor="middle" transform="rotate(-40 665.0 224)">Claude</text>
<text x="665.0" y="272" fill="#e8e8e8" font-size="12" font-weight="600" text-anchor="middle">v_ca06</text>
<rect x="732" y="180" width="26" height="30" rx="2" fill="#5b8dfb"/>
<text x="745.0" y="174" fill="#e8e8e8" font-size="11" text-anchor="middle">2</text>
<text x="745.0" y="224" fill="#9a9a9a" font-size="9" text-anchor="middle" transform="rotate(-40 745.0 224)">ChatGPT</text>
<rect x="766" y="60" width="26" height="150" rx="2" fill="#5b8dfb"/>
<text x="779.0" y="54" fill="#e8e8e8" font-size="11" text-anchor="middle">10</text>
<text x="779.0" y="224" fill="#9a9a9a" font-size="9" text-anchor="middle" transform="rotate(-40 779.0 224)">Claude</text>
<rect x="800" y="204" width="26" height="6" rx="2" fill="#333"/>
<text x="813.0" y="198" fill="#9a9a9a" font-size="9" text-anchor="middle" transform="rotate(-90 813.0 198)">invalid</text>
<text x="813.0" y="224" fill="#9a9a9a" font-size="9" text-anchor="middle" transform="rotate(-40 813.0 224)">Gemini</text>
<line x1="728" y1="60.0" x2="830" y2="60.0" stroke="#ff6b6b" stroke-width="2" stroke-dasharray="5,3"/>
<text x="779.0" y="272" fill="#e8e8e8" font-size="12" font-weight="600" text-anchor="middle">v_dsp02</text>
<rect x="880" y="204" width="26" height="6" rx="2" fill="#333"/>
<text x="893.0" y="198" fill="#9a9a9a" font-size="9" text-anchor="middle" transform="rotate(-90 893.0 198)">invalid</text>
<text x="893.0" y="224" fill="#9a9a9a" font-size="9" text-anchor="middle" transform="rotate(-40 893.0 224)">ChatGPT</text>
<rect x="914" y="204" width="26" height="6" rx="2" fill="#333"/>
<text x="927.0" y="198" fill="#9a9a9a" font-size="9" text-anchor="middle" transform="rotate(-90 927.0 198)">invalid</text>
<text x="927.0" y="224" fill="#9a9a9a" font-size="9" text-anchor="middle" transform="rotate(-40 927.0 224)">Claude</text>
<rect x="948" y="204" width="26" height="6" rx="2" fill="#333"/>
<text x="961.0" y="198" fill="#9a9a9a" font-size="9" text-anchor="middle" transform="rotate(-90 961.0 198)">invalid</text>
<text x="961.0" y="224" fill="#9a9a9a" font-size="9" text-anchor="middle" transform="rotate(-40 961.0 224)">Gemini</text>
<text x="927.0" y="272" fill="#e8e8e8" font-size="12" font-weight="600" text-anchor="middle">v_nw01</text>
<rect x="1028" y="204" width="26" height="6" rx="2" fill="#333"/>
<text x="1041.0" y="198" fill="#9a9a9a" font-size="9" text-anchor="middle" transform="rotate(-90 1041.0 198)">invalid</text>
<text x="1041.0" y="224" fill="#9a9a9a" font-size="9" text-anchor="middle" transform="rotate(-40 1041.0 224)">ChatGPT</text>
<rect x="1062" y="60" width="26" height="150" rx="2" fill="#5b8dfb"/>
<text x="1075.0" y="54" fill="#e8e8e8" font-size="11" text-anchor="middle">10</text>
<text x="1075.0" y="224" fill="#9a9a9a" font-size="9" text-anchor="middle" transform="rotate(-40 1075.0 224)">Claude</text>
<rect x="1096" y="204" width="26" height="6" rx="2" fill="#333"/>
<text x="1109.0" y="198" fill="#9a9a9a" font-size="9" text-anchor="middle" transform="rotate(-90 1109.0 198)">invalid</text>
<text x="1109.0" y="224" fill="#9a9a9a" font-size="9" text-anchor="middle" transform="rotate(-40 1109.0 224)">Gemini</text>
<line x1="1024" y1="60.0" x2="1126" y2="60.0" stroke="#ff6b6b" stroke-width="2" stroke-dasharray="5,3"/>
<text x="1075.0" y="272" fill="#e8e8e8" font-size="12" font-weight="600" text-anchor="middle">v_nw02</text>
<rect x="1176" y="60" width="26" height="150" rx="2" fill="#5b8dfb"/>
<text x="1189.0" y="54" fill="#e8e8e8" font-size="11" text-anchor="middle">10</text>
<text x="1189.0" y="224" fill="#9a9a9a" font-size="9" text-anchor="middle" transform="rotate(-40 1189.0 224)">ChatGPT</text>
<rect x="1210" y="60" width="26" height="150" rx="2" fill="#5b8dfb"/>
<text x="1223.0" y="54" fill="#e8e8e8" font-size="11" text-anchor="middle">10</text>
<text x="1223.0" y="224" fill="#9a9a9a" font-size="9" text-anchor="middle" transform="rotate(-40 1223.0 224)">Claude</text>
<rect x="1244" y="204" width="26" height="6" rx="2" fill="#333"/>
<text x="1257.0" y="198" fill="#9a9a9a" font-size="9" text-anchor="middle" transform="rotate(-90 1257.0 198)">invalid</text>
<text x="1257.0" y="224" fill="#9a9a9a" font-size="9" text-anchor="middle" transform="rotate(-40 1257.0 224)">Gemini</text>
<line x1="1172" y1="60.0" x2="1274" y2="60.0" stroke="#ff6b6b" stroke-width="2" stroke-dasharray="5,3"/>
<text x="1223.0" y="272" fill="#e8e8e8" font-size="12" font-weight="600" text-anchor="middle">v_nw03</text>
<rect x="1324" y="204" width="26" height="6" rx="2" fill="#333"/>
<text x="1337.0" y="198" fill="#9a9a9a" font-size="9" text-anchor="middle" transform="rotate(-90 1337.0 198)">gate</text>
<text x="1337.0" y="224" fill="#9a9a9a" font-size="9" text-anchor="middle" transform="rotate(-40 1337.0 224)">ChatGPT</text>
<rect x="1358" y="90" width="26" height="120" rx="2" fill="#5b8dfb"/>
<text x="1371.0" y="84" fill="#e8e8e8" font-size="11" text-anchor="middle">8</text>
<text x="1371.0" y="224" fill="#9a9a9a" font-size="9" text-anchor="middle" transform="rotate(-40 1371.0 224)">Claude</text>
<rect x="1392" y="204" width="26" height="6" rx="2" fill="#333"/>
<text x="1405.0" y="198" fill="#9a9a9a" font-size="9" text-anchor="middle" transform="rotate(-90 1405.0 198)">invalid</text>
<text x="1405.0" y="224" fill="#9a9a9a" font-size="9" text-anchor="middle" transform="rotate(-40 1405.0 224)">Gemini</text>
<line x1="1320" y1="60.0" x2="1422" y2="60.0" stroke="#ff6b6b" stroke-width="2" stroke-dasharray="5,3"/>
<text x="1371.0" y="272" fill="#e8e8e8" font-size="12" font-weight="600" text-anchor="middle">v_nw04</text>
<text x="20" y="20" fill="#e8e8e8" font-size="14" font-weight="600">Seeded faults detected (dashed line = ceiling the reference achieves)</text>
</svg>
